<?xml version="1.0" encoding="UTF-8" standalone="no"?>
<svg
   xmlns:dc="http://purl.org/dc/elements/1.1/"
   xmlns:cc="http://creativecommons.org/ns#"
   xmlns:rdf="http://www.w3.org/1999/02/22-rdf-syntax-ns#"
   xmlns:svg="http://www.w3.org/2000/svg"
   xmlns="http://www.w3.org/2000/svg"
   xmlns:sodipodi="http://sodipodi.sourceforge.net/DTD/sodipodi-0.dtd"
   xmlns:inkscape="http://www.inkscape.org/namespaces/inkscape"
   version="1.1"
   id="Layer_1"
   width="30px"
   height="25px"
   xml:space="preserve"
   inkscape:version="0.48.3.1 r9886"
   sodipodi:docname="shape107.svg"
   inkscape:export-filename="C:\Users\recov_000\Desktop\shape107.png"
   inkscape:export-xdpi="93"
   inkscape:export-ydpi="93"><metadata
   id="metadata3009"><rdf:RDF><cc:Work
       rdf:about=""><dc:format>image/svg+xml</dc:format><dc:type
         rdf:resource="http://purl.org/dc/dcmitype/StillImage" /><dc:title></dc:title></cc:Work></rdf:RDF></metadata><defs
   id="defs3007" /><sodipodi:namedview
   pagecolor="#ffffff"
   bordercolor="#666666"
   borderopacity="1"
   objecttolerance="10"
   gridtolerance="10"
   guidetolerance="10"
   inkscape:pageopacity="0"
   inkscape:pageshadow="2"
   inkscape:window-width="703"
   inkscape:window-height="480"
   id="namedview3005"
   showgrid="false"
   inkscape:zoom="9.44"
   inkscape:cx="15"
   inkscape:cy="12.5"
   inkscape:window-x="209"
   inkscape:window-y="120"
   inkscape:window-maximized="0"
   inkscape:current-layer="Layer_1" />
<g
   id="PathID_87"
   transform="matrix(1, 0, 0, 1, 0, 0)">
<path
   style="fill:#000000;fill-opacity:0.00392157"
   d="M0 25L0 0L30 0L30 25L0 25"
   id="path3000" />
</g>
<g
   id="PathID_88"
   transform="matrix(1, 0, 0, 1, 0, 0)"
   style="fill:#af2727;fill-opacity:1">
<path
   style="fill:#af2727;fill-opacity:1"
   d="M23 6.95L23 15.05L22.7 15.75L22.05 16L14.7 16L10.9 19.25L10.9 16L8.95 16Q8.55 16 8.3 15.75Q8 15.45 8 15.05L8 6.95Q8 6.55 8.3 6.3Q8.55 6 8.95 6L22.05 6Q22.45 6 22.7 6.3L23 6.95"
   id="path3003" />
</g>
</svg>